<svg width="24" height="24" viewBox="0 0 24 24" fill="none" xmlns="http://www.w3.org/2000/svg">
  <path d="M21.8195 2L13.2695 8.11L14.7295 4.8L21.8195 2Z" fill="#E17726"/>
  <path d="M2.18054 2L10.6505 8.18L9.27054 4.8L2.18054 2Z" fill="#E27625"/>
  <path d="M18.8695 16.78L16.6295 20.31L21.4195 21.65L22.7695 16.86L18.8695 16.78Z" fill="#E27625"/>
  <path d="M1.24054 16.86L2.58054 21.65L7.37054 20.31L5.13054 16.78L1.24054 16.86Z" fill="#E27625"/>
  <path d="M7.16054 11.11L5.93054 13.07L10.6705 13.3L10.5305 8.19L7.16054 11.11Z" fill="#E27625"/>
  <path d="M16.8405 11.11L13.4105 8.12L13.3305 13.3L18.0705 13.07L16.8405 11.11Z" fill="#E27625"/>
  <path d="M7.37054 20.31L10.4005 18.89L7.77054 16.9L7.37054 20.31Z" fill="#E27625"/>
  <path d="M13.6005 18.89L16.6295 20.31L16.2295 16.9L13.6005 18.89Z" fill="#E27625"/>
</svg> 